<svg width="30" height="30" viewBox="0 0 30 30" fill="none" xmlns="http://www.w3.org/2000/svg">
<g clip-path="url(#clip0)">
<path d="M15.0366 0C6.76546 0 0.0368042 6.72866 0.0368042 15C0.0368042 23.2712 6.76546 30.0001 15.0366 30.0001C23.3074 30.0001 30.0361 23.2712 30.0361 15C30.0361 6.72866 23.3074 0 15.0366 0ZM15.0366 28.7771C7.44002 28.7771 1.25974 22.5963 1.25974 15C1.25974 7.40348 7.44002 1.22294 15.0366 1.22294C22.6329 1.22294 28.8131 7.40348 28.8131 15C28.8131 22.5963 22.6329 28.7771 15.0366 28.7771Z" fill="#FF4081"/>
<path d="M22.784 9.01893L12.1185 19.6842L7.29017 14.8562C7.05138 14.6174 6.66446 14.6174 6.42541 14.8562C6.18663 15.095 6.18663 15.4819 6.42541 15.7209L11.6861 20.9813C11.8055 21.1007 11.962 21.1603 12.1185 21.1603C12.2749 21.1603 12.4314 21.1007 12.5508 20.9813L23.6487 9.88369C23.8875 9.6449 23.8875 9.25772 23.6487 9.01893C23.41 8.78015 23.0228 8.78015 22.784 9.01893Z" fill="#FF4081"/>
</g>
<defs>
<clipPath id="clip0">
<rect width="30" height="30" fill="white"/>
</clipPath>
</defs>
</svg>
