<svg width="30" height="30" viewBox="0 0 30 30" fill="none" xmlns="http://www.w3.org/2000/svg">
<g clip-path="url(#clip0)">
<path d="M14.9998 0C6.72865 0 0 6.72866 0 15C0 23.2712 6.72865 30.0001 14.9998 30.0001C23.2706 30.0001 29.9993 23.2712 29.9993 15C29.9993 6.72866 23.2706 0 14.9998 0ZM14.9998 28.7771C7.40322 28.7771 1.22294 22.5963 1.22294 15C1.22294 7.40348 7.40322 1.22294 14.9998 1.22294C22.596 1.22294 28.7763 7.40348 28.7763 15C28.7763 22.5963 22.596 28.7771 14.9998 28.7771V28.7771Z" fill="#FF4081"/>
<path d="M19.164 9.671V7.8H20.0479C20.2689 7.8 20.4479 7.621 20.4479 7.4C20.4479 7.179 20.2689 7 20.0479 7H9.4C9.179 7 9 7.179 9 7.4C9 7.621 9.179 7.8 9.4 7.8H10.284V9.671C10.2898 10.8185 10.7576 11.9153 11.5816 12.7138L14.14 15.1873L11.6944 17.4888C10.8445 18.2913 10.3631 19.4088 10.364 20.5778V22.2H9.4C9.179 22.2 9 22.379 9 22.6C9 22.821 9.179 23 9.4 23H20.0479C20.2689 23 20.4479 22.821 20.4479 22.6C20.4479 22.379 20.2689 22.2 20.0479 22.2H19.204V20.6075C19.2019 19.418 18.701 18.2839 17.8235 17.481L15.3089 15.1835L17.8669 12.7138C18.6908 11.9151 19.1584 10.8185 19.164 9.671ZM18.404 20.6075V22.2H11.164V20.5778C11.1635 19.6294 11.5544 18.723 12.244 18.072L14.7301 15.7369L17.2851 18.0713C17.9966 18.7228 18.4026 19.6428 18.404 20.6075ZM14.724 14.635L12.1383 12.1393C11.4694 11.4915 11.0894 10.6019 11.084 9.671V7.8H18.364V9.671C18.3585 10.6019 17.9785 11.4915 17.3096 12.1393L14.724 14.635Z" fill="#FF4081"/>
</g>
<defs>
<clipPath id="clip0">
<rect width="30" height="30" fill="white"/>
</clipPath>
</defs>
</svg>
