<svg width="30" height="30" viewBox="0 0 30 30" fill="none" xmlns="http://www.w3.org/2000/svg">
<g clip-path="url(#clip0)">
<path d="M25.7955 17.2659C25.7508 16.6231 25.6708 15.9286 25.5557 15.1925C25.5057 14.8727 25.2056 14.654 24.8863 14.7041C24.5666 14.7541 24.348 15.0537 24.3979 15.3735C24.5035 16.0491 24.5784 16.6862 24.6217 17.2753C22.5096 17.5543 20.7987 19.2821 20.5394 21.3965H18.6068L20.6333 18.0538C21.2473 17.0404 21.5719 15.879 21.5719 14.6952V8.66904C21.5719 8.66869 21.5719 8.66828 21.5719 8.66793V8.0582C21.8108 8.20967 22.0778 8.32252 22.3647 8.38779C22.6465 8.93353 22.9377 9.6468 23.2144 10.4712C23.3175 10.7779 23.6495 10.9432 23.9564 10.8401C24.2631 10.7371 24.4284 10.4049 24.3254 10.0981C24.1185 9.48191 23.9072 8.93189 23.6937 8.45178H24.2979C24.6214 8.45178 24.8838 8.18945 24.8838 7.86584V3.80371C24.8838 3.4801 24.6214 3.21777 24.2979 3.21777H22.9345C21.5796 3.21777 20.4697 4.28652 20.4033 5.62527C20.0226 5.38709 19.5732 5.24887 19.092 5.24887H17.2735C16.9499 5.24887 16.6876 5.51119 16.6876 5.8348C16.6876 6.15842 16.9499 6.42074 17.2735 6.42074H19.092C19.8125 6.42074 20.3988 7.00627 20.4 7.7265V14.6951C20.4 15.6648 20.1341 16.6163 19.6312 17.4464L17.2366 21.3963H13.203V16.3895C13.203 15.4607 12.8476 14.6134 12.2657 13.9762H12.6171C12.9407 13.9762 13.203 13.7138 13.203 13.3902V12.7226C13.203 11.2837 12.0323 10.1131 10.5935 10.1131H8.92137V5.53791C8.92137 5.2143 8.65904 4.95197 8.33543 4.95197H0.612773C0.28916 4.95197 0.0268359 5.2143 0.0268359 5.53791V13.3901C0.0268359 13.7137 0.28916 13.9761 0.612773 13.9761H2.59283C1.02369 15.106 0 16.9481 0 19.0251V21.982C0 22.3056 0.262324 22.5679 0.585938 22.5679H2.90994C2.88955 22.7265 2.87918 22.8869 2.87918 23.0486C2.87918 25.1075 4.55414 26.7824 6.61301 26.7824C8.67188 26.7824 10.3468 25.1075 10.3468 23.0486C10.3468 22.8869 10.3365 22.7265 10.3161 22.5679H21.5487C21.5283 22.7265 21.5179 22.8869 21.5179 23.0486C21.5179 25.1075 23.1929 26.7824 25.2517 26.7824C27.3106 26.7824 28.9856 25.1075 28.9856 23.0486C28.9856 22.8869 28.9752 22.7265 28.9548 22.5679H29.4141C29.7376 22.5679 30 22.3056 30 21.982C30 19.5478 28.1585 17.5367 25.7955 17.2659ZM21.5719 5.75225C21.5719 5.0009 22.1832 4.38965 22.9345 4.38965H23.712V7.27996H22.9345C22.0685 7.27996 21.5719 6.54783 21.5719 5.75225ZM6.61295 25.6105C5.20031 25.6105 4.051 24.4612 4.051 23.0486C4.051 22.886 4.06605 22.7253 4.09588 22.5681H9.13002C9.15984 22.7253 9.1749 22.8859 9.1749 23.0486C9.1749 24.4612 8.02564 25.6105 6.61295 25.6105ZM10.5935 11.285C11.3862 11.285 12.0311 11.9298 12.0311 12.7226V12.8042H8.92131V11.285H10.5935ZM1.19871 6.12385H7.74943V7.66768H1.19871V6.12385ZM1.19871 8.83955H7.74943V12.8042H1.19871V8.83955ZM1.17188 19.0251C1.17188 16.2425 3.4357 13.9786 6.21832 13.9786H9.62027C10.9496 13.9786 12.0311 15.0602 12.0311 16.3895V21.3961H1.17188V19.0251ZM25.2517 25.6105C23.8391 25.6105 22.6898 24.4612 22.6898 23.0486C22.6898 22.886 22.7048 22.7254 22.7347 22.5681H27.7688C27.7986 22.7253 27.8137 22.8859 27.8137 23.0486C27.8137 24.4612 26.6644 25.6105 25.2517 25.6105ZM28.7801 21.3961H21.7236C22.0073 19.6942 23.5263 18.4057 25.2518 18.4057C27.0243 18.4057 28.4997 19.7019 28.7801 21.3961Z" fill="#FF4081"/>
<path d="M24.7778 12.1781C24.5698 12.0395 24.2889 12.0497 24.0922 12.2038C23.8978 12.3561 23.8185 12.6198 23.898 12.8538C24.0661 13.3483 24.7781 13.3795 24.9884 12.9013C25.1015 12.6442 25.0109 12.335 24.7778 12.1781Z" fill="#FF4081"/>
</g>
<defs>
<clipPath id="clip0">
<rect width="30" height="30" fill="white"/>
</clipPath>
</defs>
</svg>
