<svg width="30" height="30" viewBox="0 0 30 30" fill="none" xmlns="http://www.w3.org/2000/svg">
<path d="M15.0165 1.3772C7.6245 1.3772 1.62231 7.38027 1.62231 14.7722C1.62231 22.1642 7.6245 28.1664 15.0165 28.1664C22.4085 28.1664 28.4116 22.1642 28.4116 14.7722C28.4116 7.38027 22.4085 1.3772 15.0165 1.3772ZM15.0165 2.31563C21.9018 2.31563 27.4741 7.88693 27.4741 14.7722C27.4741 21.6576 21.9018 27.2289 15.0165 27.2289C8.13116 27.2289 2.55981 21.6576 2.55981 14.7722C2.55981 7.88693 8.13116 2.31563 15.0165 2.31563ZM15.0165 3.6614C8.88659 3.6614 3.90564 8.64236 3.90564 14.7722C3.90564 20.9021 8.88659 25.8795 15.0165 25.8795C21.1464 25.8795 26.1246 20.9021 26.1246 14.7722C26.1246 8.64236 21.1464 3.6614 15.0165 3.6614ZM15.4706 4.60989C16.9828 4.67615 18.407 5.07272 19.6765 5.72777L19.0485 6.81727C18.6859 7.36901 19.5576 7.87586 19.8578 7.28781L20.4904 6.19653C21.714 6.97903 22.7574 8.01641 23.5483 9.23421L22.4561 9.86868C21.8843 10.1737 22.3784 11.0244 22.9266 10.6789L24.0225 10.0427C24.6949 11.3229 25.1036 12.7639 25.1743 14.2944H23.9062C23.2672 14.2802 23.2672 15.246 23.9062 15.2319H25.1752C25.1079 16.7487 24.7082 18.1776 24.0491 19.4497L22.9477 18.8134C22.8664 18.7647 22.7722 18.7416 22.6776 18.7475C22.2121 18.7773 22.0709 19.3945 22.4771 19.6236L23.5803 20.2599C22.7952 21.4839 21.7554 22.5267 20.5344 23.316L19.8962 22.2219C19.8097 22.0676 19.6436 21.9752 19.4669 21.983C19.1122 21.9989 18.9033 22.3881 19.086 22.6925L19.7259 23.7884C18.4441 24.4584 17.0025 24.863 15.4706 24.9301V23.6721C15.4758 23.4061 15.2587 23.189 14.9927 23.1943C14.7334 23.1996 14.5271 23.4129 14.5322 23.6721V24.9291C13.0189 24.8584 11.5944 24.4574 10.3253 23.7975L10.9543 22.7135C11.1541 22.3837 10.8923 21.9671 10.5084 22.004C10.3541 22.0182 10.2166 22.1075 10.1413 22.2429L9.51599 23.3278C8.29583 22.543 7.25561 21.5056 6.4682 20.2874L7.54578 19.6584C7.98416 19.4124 7.78048 18.7426 7.27936 18.7823C7.20618 18.7876 7.13531 18.8102 7.07245 18.8482L5.99579 19.4772C5.32776 18.1982 4.92288 16.7596 4.85504 15.2319H6.09283C6.73186 15.246 6.73186 14.2802 6.09283 14.2944H4.85596C4.9256 12.7861 5.32384 11.3648 5.97931 10.0985L7.05139 10.7165C7.60314 11.079 8.11001 10.2073 7.52197 9.90717L6.44989 9.28552C7.23191 8.06616 8.26573 7.0247 9.48028 6.23589L10.1065 7.30798C10.4115 7.87978 11.2623 7.38574 10.9167 6.83738L10.2887 5.76254C11.5668 5.09103 13.0045 4.6823 14.5322 4.61081V5.85867C14.5322 6.48429 15.4706 6.48429 15.4706 5.85867V4.60989ZM14.9842 7.27018C14.7073 7.26878 14.5278 7.49211 14.5322 7.7337V13.4557C13.997 13.6561 13.6084 14.1717 13.6084 14.7722C13.6084 15.5433 14.2454 16.1767 15.0165 16.1767C15.3809 16.1767 15.7115 16.032 15.9622 15.8013L19.4394 17.9766C19.9704 18.3086 20.4684 17.5121 19.9374 17.1801L16.4008 14.9719C16.4103 14.9061 16.4218 14.8406 16.4218 14.7722C16.4218 14.1607 16.0202 13.6386 15.4706 13.4466V7.7337C15.4753 7.46944 15.2753 7.27188 14.9842 7.27018H14.9842ZM15.0165 14.3017C15.2809 14.3017 15.4843 14.5078 15.4843 14.7722C15.4843 15.0367 15.2809 15.2392 15.0165 15.2392C14.752 15.2392 14.5459 15.0367 14.5459 14.7722C14.5459 14.5078 14.752 14.3017 15.0165 14.3017Z" fill="#FF4081"/>
</svg>
