<svg width="30" height="30" viewBox="0 0 30 30" fill="none" xmlns="http://www.w3.org/2000/svg">
<path d="M15 0C6.72914 0 0 6.72914 0 15C0 23.2709 6.72914 30 15 30C23.2709 30 30 23.2709 30 15C30 6.72914 23.2709 0 15 0ZM15 28.75C7.4182 28.75 1.24998 22.5818 1.24998 15C1.24998 7.4182 7.4182 1.24998 15 1.24998C22.5818 1.24998 28.75 7.4182 28.75 15C28.75 22.5818 22.5818 28.75 15 28.75Z" fill="#FF4081"/>
<path d="M21.0666 8.93312C20.8225 8.68896 20.427 8.68896 20.1829 8.93312L14.9997 14.1163L9.81665 8.93318C9.57249 8.68902 9.17698 8.68902 8.93288 8.93318C8.68872 9.17734 8.68872 9.57285 8.93288 9.81695L14.116 15L8.93288 20.1831C8.68872 20.4273 8.68872 20.8228 8.93288 21.0669C9.05493 21.1889 9.21489 21.25 9.37479 21.25C9.53469 21.25 9.69459 21.1889 9.8167 21.0669L14.9997 15.8838L20.1828 21.0669C20.3049 21.1889 20.4648 21.25 20.6247 21.25C20.7846 21.25 20.9445 21.1889 21.0666 21.0669C21.3108 20.8227 21.3108 20.4272 21.0666 20.1831L15.8835 15L21.0666 9.81695C21.3107 9.57279 21.3107 9.17728 21.0666 8.93312Z" fill="#FF4081"/>
</svg>
