<svg width="30" height="30" viewBox="0 0 30 30" fill="none" xmlns="http://www.w3.org/2000/svg">
<path d="M14.8793 3C13.9645 3 13.1321 3.32963 12.5 3.86663C11.8679 3.32963 11.0355 3 10.1207 3C8.1526 3 6.55172 4.51388 6.55172 6.375V7.5H1.39655C1.17726 7.5 1 7.66762 1 7.875V26.625C1 26.8324 1.17726 27 1.39655 27H18.8448H23.6034C23.6609 27 23.7141 26.9876 23.7633 26.967C23.7756 26.9618 23.7855 26.952 23.797 26.9452C23.8334 26.9254 23.8672 26.904 23.8945 26.8748C23.8989 26.8706 23.904 26.8695 23.908 26.8654C23.9203 26.8515 23.9243 26.8346 23.9338 26.8196C23.9484 26.7975 23.9631 26.7769 23.9726 26.7518C23.9822 26.7266 23.9853 26.7008 23.9893 26.6741C23.9917 26.6572 24 26.6426 24 26.625V7.875C24 7.66762 23.8227 7.5 23.6034 7.5H18.8448H18.4483V6.375C18.4483 4.51388 16.8474 3 14.8793 3ZM12.1034 6.375C12.1034 5.883 12.2498 5.424 12.5 5.02988C12.7502 5.424 12.8966 5.883 12.8966 6.375V7.5H12.1034V6.375ZM7.34483 6.375C7.34483 4.92788 8.5904 3.75 10.1207 3.75C10.8321 3.75 11.4801 4.00688 11.9718 4.42463C11.557 4.97625 11.3103 5.64825 11.3103 6.375V7.5H7.34483V6.375ZM1.7931 8.25H6.55172V10.5C6.55172 10.7074 6.72898 10.875 6.94828 10.875C7.16757 10.875 7.34483 10.7074 7.34483 10.5V8.25H12.8966V10.5C12.8966 10.7074 13.0738 10.875 13.2931 10.875C13.5124 10.875 13.6897 10.7074 13.6897 10.5V8.25H18.4483V26.25H1.7931V8.25ZM21.2241 25.2386L22.5078 26.25H19.9401L21.2241 25.2386ZM20.8276 24.5741L19.2414 25.824V8.25H20.8276V24.5741ZM23.2069 25.824L21.6207 24.5741V8.25H23.2069V25.824ZM13.6897 7.5V6.375C13.6897 5.64825 13.443 4.97625 13.0282 4.42463C13.5199 4.00688 14.1679 3.75 14.8793 3.75C16.4096 3.75 17.6552 4.92788 17.6552 6.375V7.5H13.6897Z" fill="#FF4081" stroke="#FF4081" stroke-width="0.2"/>
<path d="M9.63646 13C9.43543 13 9.27293 13.1676 9.27293 13.3749V16.0007H8.90939V13.3749C8.90939 13.1676 8.74689 13 8.54585 13C8.34482 13 8.18231 13.1676 8.18231 13.3749V16.0007H7.81769V13.3749C7.81769 13.1676 7.65518 13 7.45415 13C7.25311 13 7.09061 13.1676 7.09061 13.3749V16.0007H6.72707V13.3749C6.72707 13.1676 6.56457 13 6.36354 13C6.1625 13 6 13.1676 6 13.3749V17.1262C6 17.7463 6.48932 18.2509 7.09061 18.2509V24.0624C7.09061 24.5794 7.4985 25 8.00018 25C8.5015 25 8.90939 24.5794 8.90939 24.0624V18.2509C9.51068 18.2509 10 17.7463 10 17.1262V13.3749C10 13.1676 9.8375 13 9.63646 13ZM8.18231 24.0624C8.18231 24.1658 8.10052 24.2502 8.00018 24.2502C7.89985 24.2502 7.81769 24.1658 7.81769 24.0624V18.2509H8.18231V24.0624ZM8.90939 17.5011H8.55312C8.55058 17.5011 8.5484 17.4996 8.54585 17.4996C8.54331 17.4996 8.54113 17.5011 8.53858 17.5011H7.46106C7.45851 17.5011 7.45633 17.4996 7.45379 17.4996C7.45124 17.4996 7.44906 17.5011 7.44651 17.5011H7.09025C6.88958 17.5011 6.72671 17.3332 6.72671 17.1262V16.7506H9.27256V17.1262C9.27293 17.3332 9.11006 17.5011 8.90939 17.5011Z" fill="#FF4081" stroke="#FF4081" stroke-width="0.2"/>
<path d="M12.3333 13C12.149 13 12 13.1676 12 13.3749C12 13.3752 12.0003 13.3756 12.0003 13.3764C12.0003 13.3767 12 13.3771 12 13.3775V24.0624C12 24.5794 12.374 25 12.834 25C13.2937 25 13.6677 24.5794 13.6677 24.0624V20.1263H14.6667C14.851 20.1263 15 19.9587 15 19.7514V15.999C15 14.3454 13.8037 13 12.3333 13ZM13.001 24.0624C13.001 24.1659 12.926 24.2503 12.834 24.2503C12.742 24.2503 12.6667 24.1659 12.6667 24.0624V20.1263H13.001V24.0624ZM14.3333 19.3766H12.6667V13.7835C13.611 13.963 14.3333 14.8867 14.3333 15.999V19.3766Z" fill="#FF4081" stroke="#FF4081" stroke-width="0.2"/>
<circle cx="23.5" cy="13.5" r="6.1" fill="white" stroke="#FF4081" stroke-width="0.8"/>
<path d="M20.9 12.85L22.85 14.8L26.1 11.55" stroke="#FF4081" stroke-width="0.8"/>
</svg>
