<svg width="30" height="30" viewBox="0 0 30 30" fill="none" xmlns="http://www.w3.org/2000/svg">
<g clip-path="url(#clip0)">
<path d="M27.2759 12.3168C27.2643 12.2082 27.2209 12.1018 27.1532 12.0161L24.8261 9.06949V1.51207C24.8261 0.678281 24.1478 0 23.314 0H6.68561C5.85182 0 5.17354 0.678281 5.17354 1.51207V9.06949L2.84643 12.0161C2.76569 12.1183 2.72034 12.249 2.72034 12.3793V29.4141C2.72034 29.7377 2.98266 30 3.30627 30H26.6934C27.017 30 27.2793 29.7377 27.2793 29.4141V12.3793C27.2793 12.3582 27.2781 12.3373 27.2759 12.3168ZM6.34541 1.51207C6.34541 1.32451 6.49799 1.17188 6.68561 1.17188H23.3141C23.5017 1.17188 23.6543 1.32445 23.6543 1.51207V8.68518H6.34541V1.51207ZM17.975 25.643C17.1137 25.643 16.9329 24.9322 16.9329 24.3359C16.9329 23.1574 17.5831 22.0505 17.975 22.0505C18.367 22.0505 19.0173 23.1575 19.0173 24.3359C19.0172 24.9322 18.8364 25.643 17.975 25.643ZM18.561 28.8281V26.7471C19.567 26.5024 20.1891 25.6099 20.1891 24.3359C20.1891 23.5863 19.9903 22.7828 19.6435 22.1315C19.2134 21.3236 18.6208 20.8787 17.975 20.8787C17.3293 20.8787 16.7368 21.3236 16.3066 22.1315C15.9599 22.7828 15.761 23.5863 15.761 24.3359C15.761 25.6099 16.3831 26.5024 17.389 26.7471V28.8281H12.8695V26.977C13.7937 26.7577 14.6688 25.9866 14.6688 24.3362V21.7028C14.6688 21.3792 14.4065 21.1168 14.0829 21.1168C13.7593 21.1168 13.497 21.3792 13.497 21.7028V24.3362C13.497 25.042 13.2775 25.5207 12.8695 25.7388V22.5726C12.8695 22.249 12.6072 21.9867 12.2835 21.9867C11.9599 21.9867 11.6976 22.249 11.6976 22.5726V25.7388C11.2895 25.5207 11.0701 25.042 11.0701 24.3362V21.7028C11.0701 21.3792 10.8078 21.1168 10.4842 21.1168C10.1606 21.1168 9.89825 21.3792 9.89825 21.7028V24.3362C9.89825 25.9866 10.7733 26.7577 11.6976 26.977V28.8281H8.95372C8.05489 27.5684 7.58139 26.0878 7.58139 24.5282C7.58139 20.4375 10.9094 17.1096 15 17.1096C19.0906 17.1096 22.4187 20.4375 22.4187 24.5282C22.4187 26.0878 21.9451 27.5684 21.0464 28.8281H18.561ZM26.1074 28.8281H22.4392C23.1951 27.5275 23.5906 26.0608 23.5906 24.5282C23.5906 19.7913 19.7368 15.9377 15.0001 15.9377C10.2633 15.9377 6.40957 19.7914 6.40957 24.5282C6.40957 26.0608 6.80497 27.5274 7.56088 28.8281H3.89221V12.9652H12.2766C12.6002 12.9652 12.8625 12.7029 12.8625 12.3793C12.8625 12.0557 12.6002 11.7933 12.2766 11.7933H4.51559L6.04483 9.85705H23.9548L25.4841 11.7933H17.5395C17.2159 11.7933 16.9536 12.0557 16.9536 12.3793C16.9536 12.7029 17.2159 12.9652 17.5395 12.9652H26.1074V28.8281Z" fill="#FF4081"/>
<path d="M19.0166 2.73975H10.9829C9.78745 2.73975 8.81491 3.71229 8.81491 4.90771V4.96004C8.81491 6.15547 9.78745 7.12801 10.9829 7.12801H19.0165C20.2119 7.12801 21.1845 6.15547 21.1845 4.96004V4.90771C21.1845 3.71229 20.212 2.73975 19.0166 2.73975ZM20.0127 4.96004C20.0127 5.5093 19.5658 5.95613 19.0166 5.95613H10.9829C10.4336 5.95613 9.98679 5.5093 9.98679 4.96004V4.90771C9.98679 4.35846 10.4336 3.91162 10.9829 3.91162H19.0165C19.5658 3.91162 20.0126 4.35846 20.0126 4.90771V4.96004H20.0127Z" fill="#FF4081"/>
<path d="M15.3258 11.8922C14.8827 11.6021 14.2924 12.0215 14.436 12.5354C14.5032 12.7758 14.7213 12.9524 14.9714 12.9644C15.2212 12.9763 15.4567 12.8234 15.5466 12.59C15.6438 12.3376 15.5512 12.0425 15.3258 11.8922Z" fill="#FF4081"/>
</g>
<defs>
<clipPath id="clip0">
<rect width="30" height="30" fill="white"/>
</clipPath>
</defs>
</svg>
