<svg width="30" height="40" viewBox="0 0 30 40" fill="none" xmlns="http://www.w3.org/2000/svg">
<rect width="30" height="40" rx="3" fill="#ACAEBA"/>
<rect x="1.03442" y="1.02563" width="27.931" height="37.9487" rx="2" fill="white"/>
<rect x="3.10352" y="6.15387" width="7.24138" height="7.17949" rx="0.2" fill="#ACAEBA"/>
<rect x="11.3794" y="6.15387" width="7.24138" height="7.17949" rx="0.2" fill="#ACAEBA"/>
<rect x="19.6553" y="6.15387" width="7.24138" height="7.17949" rx="0.2" fill="#ACAEBA"/>
<rect x="3.10352" y="14.3589" width="7.24138" height="7.17949" rx="0.2" fill="#ACAEBA"/>
<rect x="11.3794" y="14.3589" width="7.24138" height="7.17949" rx="0.2" fill="#ACAEBA"/>
<rect x="19.6553" y="14.3589" width="7.24138" height="7.17949" rx="0.2" fill="#ACAEBA"/>
<rect x="3.10352" y="22.5641" width="7.24138" height="7.17949" rx="0.2" fill="#ACAEBA"/>
<rect x="11.3794" y="22.5641" width="7.24138" height="7.17949" rx="0.2" fill="#ACAEBA"/>
<rect x="19.6553" y="22.5641" width="7.24138" height="7.17949" rx="0.2" fill="#ACAEBA"/>
<rect x="3.10352" y="30.7692" width="7.24138" height="7.17949" rx="0.2" fill="#ACAEBA"/>
<rect x="11.3794" y="30.7692" width="7.24138" height="7.17949" rx="0.2" fill="#ACAEBA"/>
<rect x="19.6553" y="30.7692" width="7.24138" height="7.17949" rx="0.2" fill="#ACAEBA"/>
<rect x="10.3447" y="3.0769" width="10.3448" height="1.02564" rx="0.2" fill="#ACAEBA"/>
</svg>
