<svg width="30" height="40" viewBox="0 0 30 40" fill="none" xmlns="http://www.w3.org/2000/svg">
<rect width="30" height="40" rx="3" fill="#ACAEBA"/>
<rect x="1.03442" y="1.02563" width="27.931" height="37.9487" rx="2" fill="white"/>
<rect x="3.10352" y="4.10254" width="8.27586" height="3.07692" rx="0.2" fill="#ACAEBA"/>
<rect opacity="0.5" x="3.10352" y="11.282" width="7.24138" height="7.17949" rx="0.2" fill="#ACAEBA"/>
<rect opacity="0.5" x="11.3794" y="11.282" width="7.24138" height="7.17949" rx="0.2" fill="#ACAEBA"/>
<rect opacity="0.5" x="19.6553" y="11.282" width="7.24138" height="7.17949" rx="0.2" fill="#ACAEBA"/>
<rect opacity="0.5" x="3.10352" y="22.5641" width="7.24138" height="7.17949" rx="0.2" fill="#ACAEBA"/>
<rect opacity="0.5" x="11.3794" y="22.5641" width="7.24138" height="7.17949" rx="0.2" fill="#ACAEBA"/>
<rect opacity="0.5" x="19.6553" y="22.5641" width="7.24138" height="7.17949" rx="0.2" fill="#ACAEBA"/>
<rect opacity="0.5" x="3.10352" y="30.7692" width="7.24138" height="7.17949" rx="0.2" fill="#ACAEBA"/>
<rect opacity="0.5" x="11.3794" y="30.7692" width="7.24138" height="7.17949" rx="0.2" fill="#ACAEBA"/>
<rect opacity="0.5" x="19.6553" y="30.7692" width="7.24138" height="7.17949" rx="0.2" fill="#ACAEBA"/>
<rect x="12.4138" y="4.10254" width="8.27586" height="3.07692" rx="0.2" fill="#ACAEBA"/>
<rect x="10.3447" y="8.71796" width="10.3448" height="1.02564" rx="0.2" fill="#ACAEBA"/>
<rect x="10.3447" y="20" width="10.3448" height="1.02564" rx="0.2" fill="#ACAEBA"/>
<path d="M21.7241 4.30254C21.7241 4.19208 21.8137 4.10254 21.9241 4.10254H28.9655V7.17946H21.9241C21.8137 7.17946 21.7241 7.08992 21.7241 6.97946V4.30254Z" fill="#ACAEBA"/>
</svg>
