<svg width="30" height="40" viewBox="0 0 30 40" fill="none" xmlns="http://www.w3.org/2000/svg">
<rect width="30" height="40" rx="3" fill="#ACAEBA"/>
<rect x="1.03418" y="1.02563" width="27.931" height="37.9487" rx="2" fill="white"/>
<rect opacity="0.5" x="3" y="9" width="8" height="1" rx="0.2" fill="#74788D"/>
<rect opacity="0.5" x="3" y="17" width="8" height="1" rx="0.2" fill="#74788D"/>
<rect opacity="0.5" x="3" y="25" width="8" height="1" rx="0.2" fill="#74788D"/>
<rect opacity="0.5" x="3" y="33" width="8" height="1" rx="0.2" fill="#74788D"/>
<rect opacity="0.5" x="16" y="9" width="8" height="1" rx="0.2" fill="#74788D"/>
<rect opacity="0.5" x="16" y="17" width="8" height="1" rx="0.2" fill="#74788D"/>
<rect opacity="0.5" x="16" y="25" width="8" height="1" rx="0.2" fill="#74788D"/>
<rect opacity="0.5" x="16" y="33" width="8" height="1" rx="0.2" fill="#74788D"/>
<rect opacity="0.5" x="3" y="11" width="11" height="1" rx="0.2" fill="#ACAEBA"/>
<rect opacity="0.5" x="3" y="19" width="11" height="1" rx="0.2" fill="#ACAEBA"/>
<rect opacity="0.5" x="3" y="27" width="11" height="1" rx="0.2" fill="#ACAEBA"/>
<rect opacity="0.5" x="3" y="35" width="11" height="1" rx="0.2" fill="#ACAEBA"/>
<rect opacity="0.5" x="16" y="11" width="11" height="1" rx="0.2" fill="#ACAEBA"/>
<rect opacity="0.5" x="16" y="19" width="11" height="1" rx="0.2" fill="#ACAEBA"/>
<rect opacity="0.5" x="16" y="27" width="11" height="1" rx="0.2" fill="#ACAEBA"/>
<rect opacity="0.5" x="16" y="35" width="11" height="1" rx="0.2" fill="#ACAEBA"/>
<rect opacity="0.5" x="3" y="13" width="11" height="1" rx="0.2" fill="#ACAEBA"/>
<rect opacity="0.5" x="3" y="21" width="11" height="1" rx="0.2" fill="#ACAEBA"/>
<rect opacity="0.5" x="3" y="29" width="11" height="1" rx="0.2" fill="#ACAEBA"/>
<rect opacity="0.5" x="3" y="37" width="11" height="1" rx="0.2" fill="#ACAEBA"/>
<rect opacity="0.5" x="16" y="13" width="11" height="1" rx="0.2" fill="#ACAEBA"/>
<rect opacity="0.5" x="16" y="21" width="11" height="1" rx="0.2" fill="#ACAEBA"/>
<rect opacity="0.5" x="16" y="29" width="11" height="1" rx="0.2" fill="#ACAEBA"/>
<rect opacity="0.5" x="16" y="37" width="11" height="1" rx="0.2" fill="#ACAEBA"/>
<rect x="10" y="3" width="10.3448" height="1.02564" rx="0.2" fill="#ACAEBA"/>
</svg>
